<mxfile host="app.diagrams.net" agent="Mozilla/5.0 (X11; Ubuntu; Linux x86_64; rv:133.0) Gecko/20100101 Firefox/133.0" version="24.7.17">
  <diagram name="Page-1" id="JNxZQq6QSESMFC3WA3kJ">
    <mxGraphModel dx="2375" dy="2108" grid="1" gridSize="10" guides="1" tooltips="1" connect="1" arrows="1" fold="1" page="1" pageScale="1" pageWidth="850" pageHeight="1100" math="0" shadow="0">
      <root>
        <mxCell id="0" />
        <mxCell id="1" parent="0" />
        <mxCell id="OnMlO-O9Yx9e1WYlPsAH-1" value="Pessoa" style="swimlane;fontStyle=0;childLayout=stackLayout;horizontal=1;startSize=26;fillColor=none;horizontalStack=0;resizeParent=1;resizeParentMax=0;resizeLast=0;collapsible=1;marginBottom=0;whiteSpace=wrap;html=1;" parent="1" vertex="1">
          <mxGeometry x="190" y="360" width="140" height="130" as="geometry">
            <mxRectangle x="80" y="80" width="90" height="30" as="alternateBounds" />
          </mxGeometry>
        </mxCell>
        <mxCell id="OnMlO-O9Yx9e1WYlPsAH-2" value="+ userID" style="text;strokeColor=none;fillColor=none;align=left;verticalAlign=top;spacingLeft=4;spacingRight=4;overflow=hidden;rotatable=0;points=[[0,0.5],[1,0.5]];portConstraint=eastwest;whiteSpace=wrap;html=1;" parent="OnMlO-O9Yx9e1WYlPsAH-1" vertex="1">
          <mxGeometry y="26" width="140" height="26" as="geometry" />
        </mxCell>
        <mxCell id="OnMlO-O9Yx9e1WYlPsAH-3" value="+ nome" style="text;strokeColor=none;fillColor=none;align=left;verticalAlign=top;spacingLeft=4;spacingRight=4;overflow=hidden;rotatable=0;points=[[0,0.5],[1,0.5]];portConstraint=eastwest;whiteSpace=wrap;html=1;" parent="OnMlO-O9Yx9e1WYlPsAH-1" vertex="1">
          <mxGeometry y="52" width="140" height="26" as="geometry" />
        </mxCell>
        <mxCell id="OnMlO-O9Yx9e1WYlPsAH-4" value="+ localizacao" style="text;strokeColor=none;fillColor=none;align=left;verticalAlign=top;spacingLeft=4;spacingRight=4;overflow=hidden;rotatable=0;points=[[0,0.5],[1,0.5]];portConstraint=eastwest;whiteSpace=wrap;html=1;" parent="OnMlO-O9Yx9e1WYlPsAH-1" vertex="1">
          <mxGeometry y="78" width="140" height="26" as="geometry" />
        </mxCell>
        <mxCell id="F_HFhcNSK4Wd-H_b0RG1-4" value="+ foto" style="text;strokeColor=none;fillColor=none;align=left;verticalAlign=top;spacingLeft=4;spacingRight=4;overflow=hidden;rotatable=0;points=[[0,0.5],[1,0.5]];portConstraint=eastwest;whiteSpace=wrap;html=1;" vertex="1" parent="OnMlO-O9Yx9e1WYlPsAH-1">
          <mxGeometry y="104" width="140" height="26" as="geometry" />
        </mxCell>
        <mxCell id="OnMlO-O9Yx9e1WYlPsAH-7" value="Artista" style="swimlane;fontStyle=0;childLayout=stackLayout;horizontal=1;startSize=26;fillColor=none;horizontalStack=0;resizeParent=1;resizeParentMax=0;resizeLast=0;collapsible=1;marginBottom=0;whiteSpace=wrap;html=1;" parent="1" vertex="1">
          <mxGeometry x="-90" y="181" width="140" height="104" as="geometry" />
        </mxCell>
        <mxCell id="OnMlO-O9Yx9e1WYlPsAH-8" value="+ biografia" style="text;strokeColor=none;fillColor=none;align=left;verticalAlign=top;spacingLeft=4;spacingRight=4;overflow=hidden;rotatable=0;points=[[0,0.5],[1,0.5]];portConstraint=eastwest;whiteSpace=wrap;html=1;" parent="OnMlO-O9Yx9e1WYlPsAH-7" vertex="1">
          <mxGeometry y="26" width="140" height="26" as="geometry" />
        </mxCell>
        <mxCell id="F_HFhcNSK4Wd-H_b0RG1-16" value="+ proximosEventos" style="text;strokeColor=none;fillColor=none;align=left;verticalAlign=top;spacingLeft=4;spacingRight=4;overflow=hidden;rotatable=0;points=[[0,0.5],[1,0.5]];portConstraint=eastwest;whiteSpace=wrap;html=1;" vertex="1" parent="OnMlO-O9Yx9e1WYlPsAH-7">
          <mxGeometry y="52" width="140" height="26" as="geometry" />
        </mxCell>
        <mxCell id="OnMlO-O9Yx9e1WYlPsAH-9" value="+ numOuvintesMensais" style="text;strokeColor=none;fillColor=none;align=left;verticalAlign=top;spacingLeft=4;spacingRight=4;overflow=hidden;rotatable=0;points=[[0,0.5],[1,0.5]];portConstraint=eastwest;whiteSpace=wrap;html=1;" parent="OnMlO-O9Yx9e1WYlPsAH-7" vertex="1">
          <mxGeometry y="78" width="140" height="26" as="geometry" />
        </mxCell>
        <mxCell id="OnMlO-O9Yx9e1WYlPsAH-11" value="Utilizador" style="swimlane;fontStyle=0;childLayout=stackLayout;horizontal=1;startSize=26;fillColor=none;horizontalStack=0;resizeParent=1;resizeParentMax=0;resizeLast=0;collapsible=1;marginBottom=0;whiteSpace=wrap;html=1;" parent="1" vertex="1">
          <mxGeometry x="-94" y="460" width="140" height="130" as="geometry" />
        </mxCell>
        <mxCell id="OnMlO-O9Yx9e1WYlPsAH-12" value="+ nomeUtilizador" style="text;strokeColor=none;fillColor=none;align=left;verticalAlign=top;spacingLeft=4;spacingRight=4;overflow=hidden;rotatable=0;points=[[0,0.5],[1,0.5]];portConstraint=eastwest;whiteSpace=wrap;html=1;" parent="OnMlO-O9Yx9e1WYlPsAH-11" vertex="1">
          <mxGeometry y="26" width="140" height="26" as="geometry" />
        </mxCell>
        <mxCell id="OnMlO-O9Yx9e1WYlPsAH-13" value="+ passWord" style="text;strokeColor=none;fillColor=none;align=left;verticalAlign=top;spacingLeft=4;spacingRight=4;overflow=hidden;rotatable=0;points=[[0,0.5],[1,0.5]];portConstraint=eastwest;whiteSpace=wrap;html=1;" parent="OnMlO-O9Yx9e1WYlPsAH-11" vertex="1">
          <mxGeometry y="52" width="140" height="26" as="geometry" />
        </mxCell>
        <mxCell id="OnMlO-O9Yx9e1WYlPsAH-14" value="+ contacto" style="text;strokeColor=none;fillColor=none;align=left;verticalAlign=top;spacingLeft=4;spacingRight=4;overflow=hidden;rotatable=0;points=[[0,0.5],[1,0.5]];portConstraint=eastwest;whiteSpace=wrap;html=1;" parent="OnMlO-O9Yx9e1WYlPsAH-11" vertex="1">
          <mxGeometry y="78" width="140" height="26" as="geometry" />
        </mxCell>
        <mxCell id="OnMlO-O9Yx9e1WYlPsAH-15" value="+ dataNascimento" style="text;strokeColor=none;fillColor=none;align=left;verticalAlign=top;spacingLeft=4;spacingRight=4;overflow=hidden;rotatable=0;points=[[0,0.5],[1,0.5]];portConstraint=eastwest;whiteSpace=wrap;html=1;" parent="OnMlO-O9Yx9e1WYlPsAH-11" vertex="1">
          <mxGeometry y="104" width="140" height="26" as="geometry" />
        </mxCell>
        <mxCell id="OnMlO-O9Yx9e1WYlPsAH-23" value="" style="endArrow=block;endSize=16;endFill=0;html=1;rounded=0;" parent="1" source="OnMlO-O9Yx9e1WYlPsAH-7" target="OnMlO-O9Yx9e1WYlPsAH-1" edge="1">
          <mxGeometry width="160" relative="1" as="geometry">
            <mxPoint x="60" y="580" as="sourcePoint" />
            <mxPoint x="220" y="580" as="targetPoint" />
            <Array as="points">
              <mxPoint x="100" y="233" />
              <mxPoint x="100" y="430" />
            </Array>
          </mxGeometry>
        </mxCell>
        <mxCell id="OnMlO-O9Yx9e1WYlPsAH-24" value="" style="endArrow=block;endSize=16;endFill=0;html=1;rounded=0;" parent="1" source="OnMlO-O9Yx9e1WYlPsAH-11" target="OnMlO-O9Yx9e1WYlPsAH-1" edge="1">
          <mxGeometry width="160" relative="1" as="geometry">
            <mxPoint x="60" y="369" as="sourcePoint" />
            <mxPoint x="160" y="610" as="targetPoint" />
            <Array as="points">
              <mxPoint x="100" y="525" />
              <mxPoint x="100" y="430" />
            </Array>
          </mxGeometry>
        </mxCell>
        <mxCell id="OnMlO-O9Yx9e1WYlPsAH-48" value="Musica" style="swimlane;fontStyle=0;childLayout=stackLayout;horizontal=1;startSize=26;fillColor=none;horizontalStack=0;resizeParent=1;resizeParentMax=0;resizeLast=0;collapsible=1;marginBottom=0;whiteSpace=wrap;html=1;" parent="1" vertex="1">
          <mxGeometry x="-410" y="155" width="140" height="156" as="geometry" />
        </mxCell>
        <mxCell id="OnMlO-O9Yx9e1WYlPsAH-49" value="+ musicID" style="text;strokeColor=none;fillColor=none;align=left;verticalAlign=top;spacingLeft=4;spacingRight=4;overflow=hidden;rotatable=0;points=[[0,0.5],[1,0.5]];portConstraint=eastwest;whiteSpace=wrap;html=1;" parent="OnMlO-O9Yx9e1WYlPsAH-48" vertex="1">
          <mxGeometry y="26" width="140" height="26" as="geometry" />
        </mxCell>
        <mxCell id="OnMlO-O9Yx9e1WYlPsAH-50" value="+ nome" style="text;strokeColor=none;fillColor=none;align=left;verticalAlign=top;spacingLeft=4;spacingRight=4;overflow=hidden;rotatable=0;points=[[0,0.5],[1,0.5]];portConstraint=eastwest;whiteSpace=wrap;html=1;" parent="OnMlO-O9Yx9e1WYlPsAH-48" vertex="1">
          <mxGeometry y="52" width="140" height="26" as="geometry" />
        </mxCell>
        <mxCell id="OnMlO-O9Yx9e1WYlPsAH-51" value="+ duracao" style="text;strokeColor=none;fillColor=none;align=left;verticalAlign=top;spacingLeft=4;spacingRight=4;overflow=hidden;rotatable=0;points=[[0,0.5],[1,0.5]];portConstraint=eastwest;whiteSpace=wrap;html=1;" parent="OnMlO-O9Yx9e1WYlPsAH-48" vertex="1">
          <mxGeometry y="78" width="140" height="26" as="geometry" />
        </mxCell>
        <mxCell id="OnMlO-O9Yx9e1WYlPsAH-56" value="+ numReproducoes" style="text;strokeColor=none;fillColor=none;align=left;verticalAlign=top;spacingLeft=4;spacingRight=4;overflow=hidden;rotatable=0;points=[[0,0.5],[1,0.5]];portConstraint=eastwest;whiteSpace=wrap;html=1;" parent="OnMlO-O9Yx9e1WYlPsAH-48" vertex="1">
          <mxGeometry y="104" width="140" height="26" as="geometry" />
        </mxCell>
        <mxCell id="F_HFhcNSK4Wd-H_b0RG1-1" value="+ foto" style="text;strokeColor=none;fillColor=none;align=left;verticalAlign=top;spacingLeft=4;spacingRight=4;overflow=hidden;rotatable=0;points=[[0,0.5],[1,0.5]];portConstraint=eastwest;whiteSpace=wrap;html=1;" vertex="1" parent="OnMlO-O9Yx9e1WYlPsAH-48">
          <mxGeometry y="130" width="140" height="26" as="geometry" />
        </mxCell>
        <mxCell id="OnMlO-O9Yx9e1WYlPsAH-52" value="Album" style="swimlane;fontStyle=0;childLayout=stackLayout;horizontal=1;startSize=26;fillColor=none;horizontalStack=0;resizeParent=1;resizeParentMax=0;resizeLast=0;collapsible=1;marginBottom=0;whiteSpace=wrap;html=1;" parent="1" vertex="1">
          <mxGeometry x="-87" y="-80" width="140" height="156" as="geometry" />
        </mxCell>
        <mxCell id="OnMlO-O9Yx9e1WYlPsAH-54" value="+ nome" style="text;strokeColor=none;fillColor=none;align=left;verticalAlign=top;spacingLeft=4;spacingRight=4;overflow=hidden;rotatable=0;points=[[0,0.5],[1,0.5]];portConstraint=eastwest;whiteSpace=wrap;html=1;" parent="OnMlO-O9Yx9e1WYlPsAH-52" vertex="1">
          <mxGeometry y="26" width="140" height="26" as="geometry" />
        </mxCell>
        <mxCell id="OnMlO-O9Yx9e1WYlPsAH-53" value="+ albumID" style="text;strokeColor=none;fillColor=none;align=left;verticalAlign=top;spacingLeft=4;spacingRight=4;overflow=hidden;rotatable=0;points=[[0,0.5],[1,0.5]];portConstraint=eastwest;whiteSpace=wrap;html=1;" parent="OnMlO-O9Yx9e1WYlPsAH-52" vertex="1">
          <mxGeometry y="52" width="140" height="26" as="geometry" />
        </mxCell>
        <mxCell id="OnMlO-O9Yx9e1WYlPsAH-55" value="+ dataLancamento" style="text;strokeColor=none;fillColor=none;align=left;verticalAlign=top;spacingLeft=4;spacingRight=4;overflow=hidden;rotatable=0;points=[[0,0.5],[1,0.5]];portConstraint=eastwest;whiteSpace=wrap;html=1;" parent="OnMlO-O9Yx9e1WYlPsAH-52" vertex="1">
          <mxGeometry y="78" width="140" height="26" as="geometry" />
        </mxCell>
        <mxCell id="F_HFhcNSK4Wd-H_b0RG1-3" value="+ foto" style="text;strokeColor=none;fillColor=none;align=left;verticalAlign=top;spacingLeft=4;spacingRight=4;overflow=hidden;rotatable=0;points=[[0,0.5],[1,0.5]];portConstraint=eastwest;whiteSpace=wrap;html=1;" vertex="1" parent="OnMlO-O9Yx9e1WYlPsAH-52">
          <mxGeometry y="104" width="140" height="26" as="geometry" />
        </mxCell>
        <mxCell id="OnMlO-O9Yx9e1WYlPsAH-57" value="/ duracao" style="text;strokeColor=none;fillColor=none;align=left;verticalAlign=top;spacingLeft=4;spacingRight=4;overflow=hidden;rotatable=0;points=[[0,0.5],[1,0.5]];portConstraint=eastwest;whiteSpace=wrap;html=1;" parent="OnMlO-O9Yx9e1WYlPsAH-52" vertex="1">
          <mxGeometry y="130" width="140" height="26" as="geometry" />
        </mxCell>
        <mxCell id="OnMlO-O9Yx9e1WYlPsAH-65" value="Genero" style="swimlane;fontStyle=0;childLayout=stackLayout;horizontal=1;startSize=26;fillColor=none;horizontalStack=0;resizeParent=1;resizeParentMax=0;resizeLast=0;collapsible=1;marginBottom=0;whiteSpace=wrap;html=1;" parent="1" vertex="1">
          <mxGeometry x="-600" y="-28" width="140" height="52" as="geometry" />
        </mxCell>
        <mxCell id="OnMlO-O9Yx9e1WYlPsAH-66" value="+ nome" style="text;strokeColor=none;fillColor=none;align=left;verticalAlign=top;spacingLeft=4;spacingRight=4;overflow=hidden;rotatable=0;points=[[0,0.5],[1,0.5]];portConstraint=eastwest;whiteSpace=wrap;html=1;" parent="OnMlO-O9Yx9e1WYlPsAH-65" vertex="1">
          <mxGeometry y="26" width="140" height="26" as="geometry" />
        </mxCell>
        <mxCell id="OnMlO-O9Yx9e1WYlPsAH-69" value="" style="endArrow=none;html=1;edgeStyle=orthogonalEdgeStyle;rounded=0;" parent="1" source="OnMlO-O9Yx9e1WYlPsAH-65" target="OnMlO-O9Yx9e1WYlPsAH-48" edge="1">
          <mxGeometry relative="1" as="geometry">
            <mxPoint x="-100" y="60" as="sourcePoint" />
            <mxPoint x="-160" y="235" as="targetPoint" />
            <Array as="points">
              <mxPoint x="-370" />
            </Array>
          </mxGeometry>
        </mxCell>
        <mxCell id="OnMlO-O9Yx9e1WYlPsAH-70" value="1" style="edgeLabel;resizable=0;html=1;align=left;verticalAlign=bottom;" parent="OnMlO-O9Yx9e1WYlPsAH-69" connectable="0" vertex="1">
          <mxGeometry x="-1" relative="1" as="geometry">
            <mxPoint x="5" y="-7" as="offset" />
          </mxGeometry>
        </mxCell>
        <mxCell id="7jccI8i3BzKPVbJU6znn-1" value="" style="endArrow=none;html=1;edgeStyle=orthogonalEdgeStyle;rounded=0;" parent="1" source="OnMlO-O9Yx9e1WYlPsAH-11" target="OnMlO-O9Yx9e1WYlPsAH-48" edge="1">
          <mxGeometry relative="1" as="geometry">
            <mxPoint x="-100" y="530" as="sourcePoint" />
            <mxPoint x="-350" y="300" as="targetPoint" />
            <Array as="points">
              <mxPoint x="-346" y="525" />
            </Array>
          </mxGeometry>
        </mxCell>
        <mxCell id="7jccI8i3BzKPVbJU6znn-12" value="" style="endArrow=none;html=1;edgeStyle=orthogonalEdgeStyle;rounded=0;" parent="1" source="OnMlO-O9Yx9e1WYlPsAH-11" target="OnMlO-O9Yx9e1WYlPsAH-48" edge="1">
          <mxGeometry relative="1" as="geometry">
            <mxPoint x="-90" y="530" as="sourcePoint" />
            <mxPoint x="-240" y="320" as="targetPoint" />
            <Array as="points">
              <mxPoint x="-250" y="499" />
              <mxPoint x="-250" y="270" />
            </Array>
          </mxGeometry>
        </mxCell>
        <mxCell id="7jccI8i3BzKPVbJU6znn-15" value="Ouviu" style="swimlane;fontStyle=0;childLayout=stackLayout;horizontal=1;startSize=26;fillColor=none;horizontalStack=0;resizeParent=1;resizeParentMax=0;resizeLast=0;collapsible=1;marginBottom=0;whiteSpace=wrap;html=1;" parent="1" vertex="1">
          <mxGeometry x="-650" y="243" width="140" height="52" as="geometry" />
        </mxCell>
        <mxCell id="7jccI8i3BzKPVbJU6znn-16" value="+ timeStamp" style="text;strokeColor=none;fillColor=none;align=left;verticalAlign=top;spacingLeft=4;spacingRight=4;overflow=hidden;rotatable=0;points=[[0,0.5],[1,0.5]];portConstraint=eastwest;whiteSpace=wrap;html=1;" parent="7jccI8i3BzKPVbJU6znn-15" vertex="1">
          <mxGeometry y="26" width="140" height="26" as="geometry" />
        </mxCell>
        <mxCell id="7jccI8i3BzKPVbJU6znn-17" value="" style="endArrow=none;startArrow=none;endFill=0;startFill=0;endSize=40;html=1;verticalAlign=bottom;dashed=1;labelBackgroundColor=none;dashPattern=10 10;rounded=0;startSize=0;" parent="1" source="7jccI8i3BzKPVbJU6znn-15" edge="1">
          <mxGeometry width="160" relative="1" as="geometry">
            <mxPoint x="-600" y="356" as="sourcePoint" />
            <mxPoint x="-250" y="458" as="targetPoint" />
          </mxGeometry>
        </mxCell>
        <mxCell id="7jccI8i3BzKPVbJU6znn-18" value="Playlist" style="swimlane;fontStyle=0;childLayout=stackLayout;horizontal=1;startSize=26;fillColor=none;horizontalStack=0;resizeParent=1;resizeParentMax=0;resizeLast=0;collapsible=1;marginBottom=0;whiteSpace=wrap;html=1;" parent="1" vertex="1">
          <mxGeometry x="-128" y="760" width="140" height="208" as="geometry" />
        </mxCell>
        <mxCell id="7jccI8i3BzKPVbJU6znn-19" value="&lt;div&gt;+ playlistID&lt;/div&gt;&lt;div&gt;&lt;br&gt;&lt;/div&gt;" style="text;strokeColor=none;fillColor=none;align=left;verticalAlign=top;spacingLeft=4;spacingRight=4;overflow=hidden;rotatable=0;points=[[0,0.5],[1,0.5]];portConstraint=eastwest;whiteSpace=wrap;html=1;" parent="7jccI8i3BzKPVbJU6znn-18" vertex="1">
          <mxGeometry y="26" width="140" height="26" as="geometry" />
        </mxCell>
        <mxCell id="7jccI8i3BzKPVbJU6znn-20" value="+ nome" style="text;strokeColor=none;fillColor=none;align=left;verticalAlign=top;spacingLeft=4;spacingRight=4;overflow=hidden;rotatable=0;points=[[0,0.5],[1,0.5]];portConstraint=eastwest;whiteSpace=wrap;html=1;" parent="7jccI8i3BzKPVbJU6znn-18" vertex="1">
          <mxGeometry y="52" width="140" height="26" as="geometry" />
        </mxCell>
        <mxCell id="7jccI8i3BzKPVbJU6znn-21" value="+ descricao" style="text;strokeColor=none;fillColor=none;align=left;verticalAlign=top;spacingLeft=4;spacingRight=4;overflow=hidden;rotatable=0;points=[[0,0.5],[1,0.5]];portConstraint=eastwest;whiteSpace=wrap;html=1;" parent="7jccI8i3BzKPVbJU6znn-18" vertex="1">
          <mxGeometry y="78" width="140" height="26" as="geometry" />
        </mxCell>
        <mxCell id="7jccI8i3BzKPVbJU6znn-22" value="+ dataCriacao" style="text;strokeColor=none;fillColor=none;align=left;verticalAlign=top;spacingLeft=4;spacingRight=4;overflow=hidden;rotatable=0;points=[[0,0.5],[1,0.5]];portConstraint=eastwest;whiteSpace=wrap;html=1;" parent="7jccI8i3BzKPVbJU6znn-18" vertex="1">
          <mxGeometry y="104" width="140" height="26" as="geometry" />
        </mxCell>
        <mxCell id="7jccI8i3BzKPVbJU6znn-24" value="+ colaboradores" style="text;strokeColor=none;fillColor=none;align=left;verticalAlign=top;spacingLeft=4;spacingRight=4;overflow=hidden;rotatable=0;points=[[0,0.5],[1,0.5]];portConstraint=eastwest;whiteSpace=wrap;html=1;" parent="7jccI8i3BzKPVbJU6znn-18" vertex="1">
          <mxGeometry y="130" width="140" height="26" as="geometry" />
        </mxCell>
        <mxCell id="F_HFhcNSK4Wd-H_b0RG1-2" value="+ foto" style="text;strokeColor=none;fillColor=none;align=left;verticalAlign=top;spacingLeft=4;spacingRight=4;overflow=hidden;rotatable=0;points=[[0,0.5],[1,0.5]];portConstraint=eastwest;whiteSpace=wrap;html=1;" vertex="1" parent="7jccI8i3BzKPVbJU6znn-18">
          <mxGeometry y="156" width="140" height="26" as="geometry" />
        </mxCell>
        <mxCell id="7jccI8i3BzKPVbJU6znn-23" value="/ duracao" style="text;strokeColor=none;fillColor=none;align=left;verticalAlign=top;spacingLeft=4;spacingRight=4;overflow=hidden;rotatable=0;points=[[0,0.5],[1,0.5]];portConstraint=eastwest;whiteSpace=wrap;html=1;" parent="7jccI8i3BzKPVbJU6znn-18" vertex="1">
          <mxGeometry y="182" width="140" height="26" as="geometry" />
        </mxCell>
        <mxCell id="7jccI8i3BzKPVbJU6znn-28" value="" style="endArrow=none;html=1;edgeStyle=orthogonalEdgeStyle;rounded=0;" parent="1" target="7jccI8i3BzKPVbJU6znn-18" edge="1">
          <mxGeometry relative="1" as="geometry">
            <mxPoint x="-80" y="590" as="sourcePoint" />
            <mxPoint x="-49.99999999999994" y="749.198" as="targetPoint" />
            <Array as="points">
              <mxPoint x="-80" y="590" />
            </Array>
          </mxGeometry>
        </mxCell>
        <mxCell id="7jccI8i3BzKPVbJU6znn-29" value="1" style="edgeLabel;resizable=0;html=1;align=left;verticalAlign=bottom;" parent="7jccI8i3BzKPVbJU6znn-28" connectable="0" vertex="1">
          <mxGeometry x="-1" relative="1" as="geometry">
            <mxPoint x="-16" y="22" as="offset" />
          </mxGeometry>
        </mxCell>
        <mxCell id="7jccI8i3BzKPVbJU6znn-34" value="" style="endArrow=none;html=1;edgeStyle=orthogonalEdgeStyle;rounded=0;exitX=0.777;exitY=1.014;exitDx=0;exitDy=0;exitPerimeter=0;entryX=0.721;entryY=0.002;entryDx=0;entryDy=0;entryPerimeter=0;" parent="1" target="7jccI8i3BzKPVbJU6znn-18" edge="1">
          <mxGeometry relative="1" as="geometry">
            <mxPoint x="9.999999999999973" y="590.004" as="sourcePoint" />
            <mxPoint x="10.700000000000019" y="749.64" as="targetPoint" />
            <Array as="points">
              <mxPoint x="-40" y="590" />
              <mxPoint x="-40" y="760" />
            </Array>
          </mxGeometry>
        </mxCell>
        <mxCell id="7jccI8i3BzKPVbJU6znn-47" value="" style="endArrow=none;html=1;edgeStyle=orthogonalEdgeStyle;rounded=0;" parent="1" source="OnMlO-O9Yx9e1WYlPsAH-48" target="7jccI8i3BzKPVbJU6znn-18" edge="1">
          <mxGeometry relative="1" as="geometry">
            <mxPoint x="-430" y="880" as="sourcePoint" />
            <mxPoint x="-270" y="880" as="targetPoint" />
            <Array as="points">
              <mxPoint x="-440" y="235" />
              <mxPoint x="-440" y="910" />
            </Array>
          </mxGeometry>
        </mxCell>
        <mxCell id="7jccI8i3BzKPVbJU6znn-53" value="Podcast" style="swimlane;fontStyle=0;childLayout=stackLayout;horizontal=1;startSize=26;fillColor=none;horizontalStack=0;resizeParent=1;resizeParentMax=0;resizeLast=0;collapsible=1;marginBottom=0;whiteSpace=wrap;html=1;" parent="1" vertex="1">
          <mxGeometry x="-700" y="498" width="140" height="104" as="geometry" />
        </mxCell>
        <mxCell id="7jccI8i3BzKPVbJU6znn-56" value="+ podcastID" style="text;strokeColor=none;fillColor=none;align=left;verticalAlign=top;spacingLeft=4;spacingRight=4;overflow=hidden;rotatable=0;points=[[0,0.5],[1,0.5]];portConstraint=eastwest;whiteSpace=wrap;html=1;" parent="7jccI8i3BzKPVbJU6znn-53" vertex="1">
          <mxGeometry y="26" width="140" height="26" as="geometry" />
        </mxCell>
        <mxCell id="7jccI8i3BzKPVbJU6znn-55" value="+ nome" style="text;strokeColor=none;fillColor=none;align=left;verticalAlign=top;spacingLeft=4;spacingRight=4;overflow=hidden;rotatable=0;points=[[0,0.5],[1,0.5]];portConstraint=eastwest;whiteSpace=wrap;html=1;" parent="7jccI8i3BzKPVbJU6znn-53" vertex="1">
          <mxGeometry y="52" width="140" height="26" as="geometry" />
        </mxCell>
        <mxCell id="7jccI8i3BzKPVbJU6znn-54" value="+ foto" style="text;strokeColor=none;fillColor=none;align=left;verticalAlign=top;spacingLeft=4;spacingRight=4;overflow=hidden;rotatable=0;points=[[0,0.5],[1,0.5]];portConstraint=eastwest;whiteSpace=wrap;html=1;" parent="7jccI8i3BzKPVbJU6znn-53" vertex="1">
          <mxGeometry y="78" width="140" height="26" as="geometry" />
        </mxCell>
        <mxCell id="7jccI8i3BzKPVbJU6znn-57" value="Episodio" style="swimlane;fontStyle=0;childLayout=stackLayout;horizontal=1;startSize=26;fillColor=none;horizontalStack=0;resizeParent=1;resizeParentMax=0;resizeLast=0;collapsible=1;marginBottom=0;whiteSpace=wrap;html=1;" parent="1" vertex="1">
          <mxGeometry x="-352" y="682" width="140" height="156" as="geometry" />
        </mxCell>
        <mxCell id="7jccI8i3BzKPVbJU6znn-58" value="+ epID" style="text;strokeColor=none;fillColor=none;align=left;verticalAlign=top;spacingLeft=4;spacingRight=4;overflow=hidden;rotatable=0;points=[[0,0.5],[1,0.5]];portConstraint=eastwest;whiteSpace=wrap;html=1;" parent="7jccI8i3BzKPVbJU6znn-57" vertex="1">
          <mxGeometry y="26" width="140" height="26" as="geometry" />
        </mxCell>
        <mxCell id="7jccI8i3BzKPVbJU6znn-59" value="+ nome" style="text;strokeColor=none;fillColor=none;align=left;verticalAlign=top;spacingLeft=4;spacingRight=4;overflow=hidden;rotatable=0;points=[[0,0.5],[1,0.5]];portConstraint=eastwest;whiteSpace=wrap;html=1;" parent="7jccI8i3BzKPVbJU6znn-57" vertex="1">
          <mxGeometry y="52" width="140" height="26" as="geometry" />
        </mxCell>
        <mxCell id="7jccI8i3BzKPVbJU6znn-60" value="+ duracao" style="text;strokeColor=none;fillColor=none;align=left;verticalAlign=top;spacingLeft=4;spacingRight=4;overflow=hidden;rotatable=0;points=[[0,0.5],[1,0.5]];portConstraint=eastwest;whiteSpace=wrap;html=1;" parent="7jccI8i3BzKPVbJU6znn-57" vertex="1">
          <mxGeometry y="78" width="140" height="26" as="geometry" />
        </mxCell>
        <mxCell id="F_HFhcNSK4Wd-H_b0RG1-5" value="+ dataLancamento" style="text;strokeColor=none;fillColor=none;align=left;verticalAlign=top;spacingLeft=4;spacingRight=4;overflow=hidden;rotatable=0;points=[[0,0.5],[1,0.5]];portConstraint=eastwest;whiteSpace=wrap;html=1;" vertex="1" parent="7jccI8i3BzKPVbJU6znn-57">
          <mxGeometry y="104" width="140" height="26" as="geometry" />
        </mxCell>
        <mxCell id="F_HFhcNSK4Wd-H_b0RG1-6" value="+ descricao" style="text;strokeColor=none;fillColor=none;align=left;verticalAlign=top;spacingLeft=4;spacingRight=4;overflow=hidden;rotatable=0;points=[[0,0.5],[1,0.5]];portConstraint=eastwest;whiteSpace=wrap;html=1;" vertex="1" parent="7jccI8i3BzKPVbJU6znn-57">
          <mxGeometry y="130" width="140" height="26" as="geometry" />
        </mxCell>
        <mxCell id="7jccI8i3BzKPVbJU6znn-65" value="" style="endArrow=none;html=1;edgeStyle=orthogonalEdgeStyle;rounded=0;" parent="1" source="7jccI8i3BzKPVbJU6znn-57" target="OnMlO-O9Yx9e1WYlPsAH-11" edge="1">
          <mxGeometry relative="1" as="geometry">
            <mxPoint x="-310" y="560" as="sourcePoint" />
            <mxPoint x="-150" y="560" as="targetPoint" />
            <Array as="points">
              <mxPoint x="-270" y="550" />
            </Array>
          </mxGeometry>
        </mxCell>
        <mxCell id="7jccI8i3BzKPVbJU6znn-68" value="" style="endArrow=none;html=1;edgeStyle=orthogonalEdgeStyle;rounded=0;" parent="1" source="7jccI8i3BzKPVbJU6znn-57" target="OnMlO-O9Yx9e1WYlPsAH-11" edge="1">
          <mxGeometry relative="1" as="geometry">
            <mxPoint x="-519" y="561" as="sourcePoint" />
            <mxPoint x="-80" y="561" as="targetPoint" />
            <Array as="points">
              <mxPoint x="-240" y="570" />
            </Array>
          </mxGeometry>
        </mxCell>
        <mxCell id="7jccI8i3BzKPVbJU6znn-71" value="" style="endArrow=none;html=1;edgeStyle=orthogonalEdgeStyle;rounded=0;" parent="1" source="7jccI8i3BzKPVbJU6znn-53" target="OnMlO-O9Yx9e1WYlPsAH-11" edge="1">
          <mxGeometry relative="1" as="geometry">
            <mxPoint x="-509" y="820.5" as="sourcePoint" />
            <mxPoint x="-70" y="820.5" as="targetPoint" />
            <Array as="points">
              <mxPoint x="-630" y="831" />
              <mxPoint x="-480" y="831" />
              <mxPoint x="-480" y="1000" />
              <mxPoint x="100" y="1000" />
              <mxPoint x="100" y="730" />
              <mxPoint x="10" y="730" />
            </Array>
          </mxGeometry>
        </mxCell>
        <mxCell id="7jccI8i3BzKPVbJU6znn-79" value="guardou" style="text;html=1;align=center;verticalAlign=middle;whiteSpace=wrap;rounded=0;" parent="1" vertex="1">
          <mxGeometry x="-230" y="973" width="60" height="30" as="geometry" />
        </mxCell>
        <mxCell id="7jccI8i3BzKPVbJU6znn-80" value="gostou" style="text;html=1;align=center;verticalAlign=middle;whiteSpace=wrap;rounded=0;" parent="1" vertex="1">
          <mxGeometry x="-210" y="545" width="60" height="30" as="geometry" />
        </mxCell>
        <mxCell id="7jccI8i3BzKPVbJU6znn-81" value="ouviu" style="text;html=1;align=center;verticalAlign=middle;whiteSpace=wrap;rounded=0;" parent="1" vertex="1">
          <mxGeometry x="-210" y="525" width="60" height="30" as="geometry" />
        </mxCell>
        <mxCell id="7jccI8i3BzKPVbJU6znn-85" value="gostou" style="text;html=1;align=center;verticalAlign=middle;whiteSpace=wrap;rounded=0;" parent="1" vertex="1">
          <mxGeometry x="-210" y="498" width="60" height="30" as="geometry" />
        </mxCell>
        <mxCell id="7jccI8i3BzKPVbJU6znn-90" value="criou" style="text;html=1;align=center;verticalAlign=middle;whiteSpace=wrap;rounded=0;rotation=-90;" parent="1" vertex="1">
          <mxGeometry x="-121" y="689" width="60" height="30" as="geometry" />
        </mxCell>
        <mxCell id="7jccI8i3BzKPVbJU6znn-91" value="guardou" style="text;html=1;align=center;verticalAlign=middle;whiteSpace=wrap;rounded=0;rotation=90;" parent="1" vertex="1">
          <mxGeometry x="-56" y="689" width="60" height="30" as="geometry" />
        </mxCell>
        <mxCell id="7jccI8i3BzKPVbJU6znn-99" value="adicionou" style="text;html=1;align=center;verticalAlign=middle;whiteSpace=wrap;rounded=0;" parent="1" vertex="1">
          <mxGeometry x="-310" y="884" width="60" height="30" as="geometry" />
        </mxCell>
        <mxCell id="7jccI8i3BzKPVbJU6znn-105" value="&lt;font size=&quot;1&quot;&gt;&lt;sub style=&quot;font-size: 16px;&quot;&gt;*&lt;/sub&gt;&lt;/font&gt;" style="edgeLabel;resizable=0;html=1;align=right;verticalAlign=bottom;" parent="1" connectable="0" vertex="1">
          <mxGeometry x="-101" y="499.0005263157895" as="geometry" />
        </mxCell>
        <mxCell id="7jccI8i3BzKPVbJU6znn-106" value="&lt;font size=&quot;1&quot;&gt;&lt;sub style=&quot;font-size: 16px;&quot;&gt;*&lt;/sub&gt;&lt;/font&gt;" style="edgeLabel;resizable=0;html=1;align=right;verticalAlign=bottom;" parent="1" connectable="0" vertex="1">
          <mxGeometry x="-254" y="269.0005263157895" as="geometry" />
        </mxCell>
        <mxCell id="7jccI8i3BzKPVbJU6znn-107" value="&lt;font size=&quot;1&quot;&gt;&lt;sub style=&quot;font-size: 16px;&quot;&gt;*&lt;/sub&gt;&lt;/font&gt;" style="edgeLabel;resizable=0;html=1;align=right;verticalAlign=bottom;" parent="1" connectable="0" vertex="1">
          <mxGeometry x="-101" y="525.0005263157896" as="geometry" />
        </mxCell>
        <mxCell id="7jccI8i3BzKPVbJU6znn-108" value="&lt;font size=&quot;1&quot;&gt;&lt;sub style=&quot;font-size: 16px;&quot;&gt;*&lt;/sub&gt;&lt;/font&gt;" style="edgeLabel;resizable=0;html=1;align=right;verticalAlign=bottom;" parent="1" connectable="0" vertex="1">
          <mxGeometry x="-332" y="351.0005263157895" as="geometry" />
        </mxCell>
        <mxCell id="7jccI8i3BzKPVbJU6znn-110" value="&lt;font size=&quot;1&quot;&gt;&lt;sub style=&quot;font-size: 16px;&quot;&gt;*&lt;/sub&gt;&lt;/font&gt;" style="edgeLabel;resizable=0;html=1;align=right;verticalAlign=bottom;" parent="1" connectable="0" vertex="1">
          <mxGeometry x="-101" y="551.0005263157896" as="geometry" />
        </mxCell>
        <mxCell id="7jccI8i3BzKPVbJU6znn-111" value="&lt;font size=&quot;1&quot;&gt;&lt;sub style=&quot;font-size: 16px;&quot;&gt;*&lt;/sub&gt;&lt;/font&gt;" style="edgeLabel;resizable=0;html=1;align=right;verticalAlign=bottom;" parent="1" connectable="0" vertex="1">
          <mxGeometry x="-101" y="580.0005263157896" as="geometry" />
        </mxCell>
        <mxCell id="7jccI8i3BzKPVbJU6znn-115" value="&lt;font size=&quot;1&quot;&gt;&lt;sub style=&quot;font-size: 16px;&quot;&gt;*&lt;/sub&gt;&lt;/font&gt;" style="edgeLabel;resizable=0;html=1;align=right;verticalAlign=bottom;" parent="1" connectable="0" vertex="1">
          <mxGeometry x="-80" y="760.0005263157896" as="geometry" />
        </mxCell>
        <mxCell id="7jccI8i3BzKPVbJU6znn-116" value="&lt;font size=&quot;1&quot;&gt;&lt;sub style=&quot;font-size: 16px;&quot;&gt;*&lt;/sub&gt;&lt;/font&gt;" style="edgeLabel;resizable=0;html=1;align=right;verticalAlign=bottom;" parent="1" connectable="0" vertex="1">
          <mxGeometry x="-29" y="616.0005263157896" as="geometry" />
        </mxCell>
        <mxCell id="7jccI8i3BzKPVbJU6znn-117" value="&lt;font size=&quot;1&quot;&gt;&lt;sub style=&quot;font-size: 16px;&quot;&gt;*&lt;/sub&gt;&lt;/font&gt;" style="edgeLabel;resizable=0;html=1;align=right;verticalAlign=bottom;" parent="1" connectable="0" vertex="1">
          <mxGeometry x="-29" y="760.0005263157896" as="geometry" />
        </mxCell>
        <mxCell id="7jccI8i3BzKPVbJU6znn-119" value="&lt;font size=&quot;1&quot;&gt;&lt;sub style=&quot;font-size: 16px;&quot;&gt;*&lt;/sub&gt;&lt;/font&gt;" style="edgeLabel;resizable=0;html=1;align=right;verticalAlign=bottom;" parent="1" connectable="0" vertex="1">
          <mxGeometry x="-517" y="830.0005263157896" as="geometry" />
        </mxCell>
        <mxCell id="7jccI8i3BzKPVbJU6znn-120" value="&lt;font size=&quot;1&quot;&gt;&lt;sub style=&quot;font-size: 16px;&quot;&gt;*&lt;/sub&gt;&lt;/font&gt;" style="edgeLabel;resizable=0;html=1;align=right;verticalAlign=bottom;" parent="1" connectable="0" vertex="1">
          <mxGeometry x="3" y="614.0005263157896" as="geometry" />
        </mxCell>
        <mxCell id="7jccI8i3BzKPVbJU6znn-121" value="&lt;font size=&quot;1&quot;&gt;&lt;sub style=&quot;font-size: 16px;&quot;&gt;*&lt;/sub&gt;&lt;/font&gt;" style="edgeLabel;resizable=0;html=1;align=right;verticalAlign=bottom;" parent="1" connectable="0" vertex="1">
          <mxGeometry x="-135" y="907.0005263157896" as="geometry" />
        </mxCell>
        <mxCell id="7jccI8i3BzKPVbJU6znn-123" value="&lt;font size=&quot;1&quot;&gt;&lt;sub style=&quot;font-size: 16px;&quot;&gt;*&lt;/sub&gt;&lt;/font&gt;" style="edgeLabel;resizable=0;html=1;align=right;verticalAlign=bottom;" parent="1" connectable="0" vertex="1">
          <mxGeometry x="-378" y="233.00052631578956" as="geometry" />
        </mxCell>
        <mxCell id="7jccI8i3BzKPVbJU6znn-124" value="&lt;b&gt;&lt;font size=&quot;1&quot;&gt;&lt;sub style=&quot;font-size: 20px;&quot;&gt;*&lt;/sub&gt;&lt;/font&gt;&lt;/b&gt;" style="edgeLabel;resizable=0;html=1;align=right;verticalAlign=bottom;" parent="1" connectable="0" vertex="1">
          <mxGeometry x="-352" y="154.00052631578947" as="geometry" />
        </mxCell>
        <mxCell id="F_HFhcNSK4Wd-H_b0RG1-7" value="" style="endArrow=none;html=1;edgeStyle=orthogonalEdgeStyle;rounded=0;" edge="1" parent="1" source="7jccI8i3BzKPVbJU6znn-57" target="7jccI8i3BzKPVbJU6znn-53">
          <mxGeometry relative="1" as="geometry">
            <mxPoint x="-760" y="700" as="sourcePoint" />
            <mxPoint x="-600" y="700" as="targetPoint" />
            <Array as="points">
              <mxPoint x="-300" y="560" />
            </Array>
          </mxGeometry>
        </mxCell>
        <mxCell id="F_HFhcNSK4Wd-H_b0RG1-8" value="&lt;font style=&quot;font-size: 20px;&quot;&gt;*&lt;/font&gt;" style="edgeLabel;resizable=0;html=1;align=left;verticalAlign=bottom;" connectable="0" vertex="1" parent="F_HFhcNSK4Wd-H_b0RG1-7">
          <mxGeometry x="-1" relative="1" as="geometry">
            <mxPoint x="-17" as="offset" />
          </mxGeometry>
        </mxCell>
        <mxCell id="F_HFhcNSK4Wd-H_b0RG1-9" value="1" style="edgeLabel;resizable=0;html=1;align=right;verticalAlign=bottom;" connectable="0" vertex="1" parent="F_HFhcNSK4Wd-H_b0RG1-7">
          <mxGeometry x="1" relative="1" as="geometry">
            <mxPoint x="13" y="-4" as="offset" />
          </mxGeometry>
        </mxCell>
        <mxCell id="F_HFhcNSK4Wd-H_b0RG1-12" value="Criador" style="swimlane;fontStyle=0;childLayout=stackLayout;horizontal=1;startSize=26;fillColor=none;horizontalStack=0;resizeParent=1;resizeParentMax=0;resizeLast=0;collapsible=1;marginBottom=0;whiteSpace=wrap;html=1;" vertex="1" parent="1">
          <mxGeometry x="-90" y="360" width="140" height="52" as="geometry" />
        </mxCell>
        <mxCell id="F_HFhcNSK4Wd-H_b0RG1-13" value="+ biografia" style="text;strokeColor=none;fillColor=none;align=left;verticalAlign=top;spacingLeft=4;spacingRight=4;overflow=hidden;rotatable=0;points=[[0,0.5],[1,0.5]];portConstraint=eastwest;whiteSpace=wrap;html=1;" vertex="1" parent="F_HFhcNSK4Wd-H_b0RG1-12">
          <mxGeometry y="26" width="140" height="26" as="geometry" />
        </mxCell>
        <mxCell id="F_HFhcNSK4Wd-H_b0RG1-17" value="" style="endArrow=none;html=1;edgeStyle=orthogonalEdgeStyle;rounded=0;" edge="1" parent="1" source="OnMlO-O9Yx9e1WYlPsAH-48" target="OnMlO-O9Yx9e1WYlPsAH-7">
          <mxGeometry relative="1" as="geometry">
            <mxPoint x="-250" y="150" as="sourcePoint" />
            <mxPoint x="-90" y="150" as="targetPoint" />
          </mxGeometry>
        </mxCell>
        <mxCell id="F_HFhcNSK4Wd-H_b0RG1-18" value="&lt;font style=&quot;font-size: 20px;&quot;&gt;&lt;b&gt;*&lt;/b&gt;&lt;/font&gt;" style="edgeLabel;resizable=0;html=1;align=left;verticalAlign=bottom;" connectable="0" vertex="1" parent="F_HFhcNSK4Wd-H_b0RG1-17">
          <mxGeometry x="-1" relative="1" as="geometry">
            <mxPoint x="5" y="-5" as="offset" />
          </mxGeometry>
        </mxCell>
        <mxCell id="F_HFhcNSK4Wd-H_b0RG1-19" value="&lt;font style=&quot;font-size: 20px;&quot;&gt;&lt;b&gt;*&lt;/b&gt;&lt;/font&gt;" style="edgeLabel;resizable=0;html=1;align=right;verticalAlign=bottom;" connectable="0" vertex="1" parent="F_HFhcNSK4Wd-H_b0RG1-17">
          <mxGeometry x="1" relative="1" as="geometry">
            <mxPoint x="-6" y="-4" as="offset" />
          </mxGeometry>
        </mxCell>
        <mxCell id="F_HFhcNSK4Wd-H_b0RG1-20" value="" style="endArrow=none;html=1;edgeStyle=orthogonalEdgeStyle;rounded=0;" edge="1" parent="1" source="OnMlO-O9Yx9e1WYlPsAH-48" target="OnMlO-O9Yx9e1WYlPsAH-52">
          <mxGeometry relative="1" as="geometry">
            <mxPoint x="-330" y="-90" as="sourcePoint" />
            <mxPoint x="-170" y="-90" as="targetPoint" />
            <Array as="points">
              <mxPoint x="-310" y="-2" />
            </Array>
          </mxGeometry>
        </mxCell>
        <mxCell id="F_HFhcNSK4Wd-H_b0RG1-21" value="&lt;font style=&quot;font-size: 20px;&quot;&gt;&lt;b&gt;*&lt;/b&gt;&lt;/font&gt;" style="edgeLabel;resizable=0;html=1;align=left;verticalAlign=bottom;" connectable="0" vertex="1" parent="F_HFhcNSK4Wd-H_b0RG1-20">
          <mxGeometry x="-1" relative="1" as="geometry">
            <mxPoint x="5" y="-1" as="offset" />
          </mxGeometry>
        </mxCell>
        <mxCell id="F_HFhcNSK4Wd-H_b0RG1-22" value="1" style="edgeLabel;resizable=0;html=1;align=right;verticalAlign=bottom;" connectable="0" vertex="1" parent="F_HFhcNSK4Wd-H_b0RG1-20">
          <mxGeometry x="1" relative="1" as="geometry">
            <mxPoint x="-7" y="-3" as="offset" />
          </mxGeometry>
        </mxCell>
        <mxCell id="F_HFhcNSK4Wd-H_b0RG1-23" value="" style="endArrow=none;html=1;edgeStyle=orthogonalEdgeStyle;rounded=0;" edge="1" parent="1" source="7jccI8i3BzKPVbJU6znn-53" target="F_HFhcNSK4Wd-H_b0RG1-12">
          <mxGeometry relative="1" as="geometry">
            <mxPoint x="-670" y="440" as="sourcePoint" />
            <mxPoint x="-510" y="440" as="targetPoint" />
            <Array as="points">
              <mxPoint x="-630" y="386" />
            </Array>
          </mxGeometry>
        </mxCell>
        <mxCell id="F_HFhcNSK4Wd-H_b0RG1-24" value="&lt;font style=&quot;font-size: 20px;&quot;&gt;*&lt;/font&gt;" style="edgeLabel;resizable=0;html=1;align=left;verticalAlign=bottom;" connectable="0" vertex="1" parent="F_HFhcNSK4Wd-H_b0RG1-23">
          <mxGeometry x="-1" relative="1" as="geometry">
            <mxPoint x="10" y="-8" as="offset" />
          </mxGeometry>
        </mxCell>
        <mxCell id="F_HFhcNSK4Wd-H_b0RG1-25" value="&lt;font style=&quot;font-size: 20px;&quot;&gt;&lt;b&gt;*&lt;/b&gt;&lt;/font&gt;" style="edgeLabel;resizable=0;html=1;align=right;verticalAlign=bottom;" connectable="0" vertex="1" parent="F_HFhcNSK4Wd-H_b0RG1-23">
          <mxGeometry x="1" relative="1" as="geometry" />
        </mxCell>
        <mxCell id="F_HFhcNSK4Wd-H_b0RG1-26" value="" style="endArrow=block;endSize=16;endFill=0;html=1;rounded=0;" edge="1" parent="1" source="F_HFhcNSK4Wd-H_b0RG1-12" target="OnMlO-O9Yx9e1WYlPsAH-1">
          <mxGeometry x="0.0284" y="-20" width="160" relative="1" as="geometry">
            <mxPoint x="190" y="280" as="sourcePoint" />
            <mxPoint x="350" y="280" as="targetPoint" />
            <Array as="points">
              <mxPoint x="100" y="386" />
              <mxPoint x="100" y="430" />
            </Array>
            <mxPoint as="offset" />
          </mxGeometry>
        </mxCell>
        <mxCell id="F_HFhcNSK4Wd-H_b0RG1-27" value="" style="endArrow=none;html=1;edgeStyle=orthogonalEdgeStyle;rounded=0;" edge="1" parent="1" source="OnMlO-O9Yx9e1WYlPsAH-11" target="OnMlO-O9Yx9e1WYlPsAH-11">
          <mxGeometry relative="1" as="geometry">
            <mxPoint x="200" y="617" as="sourcePoint" />
            <mxPoint x="360" y="617" as="targetPoint" />
            <Array as="points">
              <mxPoint x="150" y="560" />
              <mxPoint x="150" y="650" />
              <mxPoint x="30" y="650" />
            </Array>
          </mxGeometry>
        </mxCell>
        <mxCell id="F_HFhcNSK4Wd-H_b0RG1-28" value="&lt;font style=&quot;font-size: 20px;&quot;&gt;*&lt;/font&gt;" style="edgeLabel;resizable=0;html=1;align=left;verticalAlign=bottom;" connectable="0" vertex="1" parent="F_HFhcNSK4Wd-H_b0RG1-27">
          <mxGeometry x="-1" relative="1" as="geometry">
            <mxPoint x="4" y="30" as="offset" />
          </mxGeometry>
        </mxCell>
        <mxCell id="F_HFhcNSK4Wd-H_b0RG1-29" value="&lt;font style=&quot;font-size: 20px;&quot;&gt;*&lt;/font&gt;" style="edgeLabel;resizable=0;html=1;align=right;verticalAlign=bottom;" connectable="0" vertex="1" parent="F_HFhcNSK4Wd-H_b0RG1-27">
          <mxGeometry x="1" relative="1" as="geometry">
            <mxPoint x="13" y="29" as="offset" />
          </mxGeometry>
        </mxCell>
        <mxCell id="F_HFhcNSK4Wd-H_b0RG1-34" value="segiu" style="text;html=1;align=center;verticalAlign=middle;resizable=0;points=[];autosize=1;strokeColor=none;fillColor=none;" vertex="1" parent="1">
          <mxGeometry x="150" y="602" width="50" height="30" as="geometry" />
        </mxCell>
        <mxCell id="F_HFhcNSK4Wd-H_b0RG1-35" value="" style="endArrow=none;html=1;edgeStyle=orthogonalEdgeStyle;rounded=0;" edge="1" parent="1" source="7jccI8i3BzKPVbJU6znn-53" target="OnMlO-O9Yx9e1WYlPsAH-65">
          <mxGeometry relative="1" as="geometry">
            <mxPoint x="-720" y="150" as="sourcePoint" />
            <mxPoint x="-560" y="150" as="targetPoint" />
            <Array as="points">
              <mxPoint x="-740" y="550" />
              <mxPoint x="-740" y="-2" />
            </Array>
          </mxGeometry>
        </mxCell>
        <mxCell id="F_HFhcNSK4Wd-H_b0RG1-36" value="&lt;font style=&quot;font-size: 20px;&quot;&gt;*&lt;/font&gt;" style="edgeLabel;resizable=0;html=1;align=left;verticalAlign=bottom;" connectable="0" vertex="1" parent="F_HFhcNSK4Wd-H_b0RG1-35">
          <mxGeometry x="-1" relative="1" as="geometry">
            <mxPoint x="-14" y="30" as="offset" />
          </mxGeometry>
        </mxCell>
        <mxCell id="F_HFhcNSK4Wd-H_b0RG1-37" value="1" style="edgeLabel;resizable=0;html=1;align=right;verticalAlign=bottom;" connectable="0" vertex="1" parent="F_HFhcNSK4Wd-H_b0RG1-35">
          <mxGeometry x="1" relative="1" as="geometry">
            <mxPoint x="-5" y="-4" as="offset" />
          </mxGeometry>
        </mxCell>
        <mxCell id="F_HFhcNSK4Wd-H_b0RG1-40" value="{OI RESTRIÇÃO}" style="text;align=center;fontStyle=1;verticalAlign=middle;spacingLeft=3;spacingRight=3;strokeColor=none;rotatable=0;points=[[0,0.5],[1,0.5]];portConstraint=eastwest;html=1;" vertex="1" parent="1">
          <mxGeometry x="120" y="300" width="80" height="26" as="geometry" />
        </mxCell>
      </root>
    </mxGraphModel>
  </diagram>
</mxfile>
